<?xml version="1.0" encoding="UTF-8" standalone="no"?>
<!-- Created with Inkscape (http://www.inkscape.org/) -->

<svg
   xmlns:dc="http://purl.org/dc/elements/1.1/"
   xmlns:cc="http://creativecommons.org/ns#"
   xmlns:rdf="http://www.w3.org/1999/02/22-rdf-syntax-ns#"
   xmlns:svg="http://www.w3.org/2000/svg"
   xmlns="http://www.w3.org/2000/svg"
   xmlns:sodipodi="http://sodipodi.sourceforge.net/DTD/sodipodi-0.dtd"
   xmlns:inkscape="http://www.inkscape.org/namespaces/inkscape"
   width="100"
   height="100"
   id="svg2"
   version="1.1"
   inkscape:version="0.48.2 r9819"
   sodipodi:docname="factory-marker.svg">
  <defs
     id="defs4" />
  <sodipodi:namedview
     id="base"
     pagecolor="#ffffff"
     bordercolor="#666666"
     borderopacity="1.0"
     inkscape:pageopacity="0.0"
     inkscape:pageshadow="2"
     inkscape:zoom="5.6568542"
     inkscape:cx="28.074277"
     inkscape:cy="60.901231"
     inkscape:document-units="px"
     inkscape:current-layer="layer1"
     showgrid="false"
     inkscape:window-width="1920"
     inkscape:window-height="1005"
     inkscape:window-x="0"
     inkscape:window-y="22"
     inkscape:window-maximized="1"
     showguides="true"
     inkscape:guide-bbox="true" />
  <metadata
     id="metadata7">
    <rdf:RDF>
      <cc:Work
         rdf:about="">
        <dc:format>image/svg+xml</dc:format>
        <dc:type
           rdf:resource="http://purl.org/dc/dcmitype/StillImage" />
        <dc:title></dc:title>
      </cc:Work>
    </rdf:RDF>
  </metadata>
  <g
     inkscape:label="Layer 1"
     inkscape:groupmode="layer"
     id="layer1"
     transform="translate(0,-952.36218)">
    <path
       style="fill:#d2691e;fill-opacity:1;fill-rule:nonzero;stroke:none"
       d="m 49.814345,954.61467 c -22.459215,0 -40.6534131,18.77319 -40.6534131,41.92648 0,15.91785 8.6110901,29.77375 21.2877121,36.87295 0.02009,0.01 0.03817,0.022 0.05824,0.029 8.631963,3.3885 15.559511,10.0334 19.190974,18.363 3.680539,-8.4558 10.78948,-15.1358 19.598672,-18.4806 0.03028,-0.017 0.05713,-0.041 0.08736,-0.058 12.571827,-7.1302 21.112983,-20.8888 21.112983,-36.72597 0,-23.15329 -18.223305,-41.92648 -40.682534,-41.92648 z"
       id="rect3757"
       inkscape:connector-curvature="0" />
    <path
       style="opacity:0.13551402;fill:#000000;fill-opacity:1;fill-rule:nonzero;stroke:none"
       d="M 76.8125 38.4375 L 22.59375 63.3125 L 52.9375 93.65625 C 56.908642 87.963879 62.600946 83.505223 69.28125 80.96875 C 69.31153 80.95175 69.34477 80.92325 69.375 80.90625 C 79.788492 75.000165 87.430909 64.54099 89.75 52.125 L 76.8125 38.4375 z "
       transform="translate(0,952.36218)"
       id="rect4036" />
    <g
       id="g4024"
       transform="matrix(0.76703296,0,0,0.76703296,83.392364,234.69864)">
      <path
         sodipodi:nodetypes="cccc"
         inkscape:connector-curvature="0"
         id="rect4005"
         d="m -47.376155,963.77564 21.539005,21.53899 -21.539005,0 z"
         style="fill:#992222;fill-opacity:1;fill-rule:nonzero;stroke:none" />
      <path
         style="fill:#a81d1d;fill-opacity:1;fill-rule:nonzero;stroke:none"
         d="m -28.776125,963.42209 21.5390049,21.53899 -21.5390049,0 z"
         id="path4008"
         inkscape:connector-curvature="0"
         sodipodi:nodetypes="cccc" />
      <rect
         y="965.01306"
         x="-76.190758"
         height="41.719296"
         width="5.6568546"
         id="rect4010"
         style="fill:#942121;fill-opacity:1;fill-rule:nonzero;stroke:none" />
      <rect
         y="984.8335"
         x="-79.01918"
         height="33.410797"
         width="71.948112"
         id="rect4003"
         style="fill:#8e1d1d;fill-opacity:1;fill-rule:nonzero;stroke:none" />
      <rect
         y="998.79883"
         x="-75.30687"
         height="20.329321"
         width="26.162951"
         id="rect4014"
         style="fill:#541818;fill-opacity:1;fill-rule:nonzero;stroke:none" />
      <rect
         transform="translate(0,952.36218)"
         y="65.705322"
         x="-82.908272"
         height="3.0052037"
         width="80.433395"
         id="rect4012"
         style="fill:#6b1616;fill-opacity:1;fill-rule:nonzero;stroke:none" />
      <rect
         transform="scale(1,-1)"
         style="fill:#541818;fill-opacity:1;fill-rule:nonzero;stroke:none"
         id="rect4018"
         width="26.162951"
         height="3.0052092"
         x="-75.30687"
         y="-990.84387" />
      <rect
         y="-990.66711"
         x="-36.592773"
         height="3.0052092"
         width="26.162951"
         id="rect4020"
         style="fill:#541818;fill-opacity:1;fill-rule:nonzero;stroke:none"
         transform="scale(1,-1)" />
    </g>
  </g>
</svg>
