<?xml version="1.0" encoding="UTF-8"?>
<!DOCTYPE svg PUBLIC "-//W3C//DTD SVG 1.1//EN" "http://www.w3.org/Graphics/SVG/1.1/DTD/svg11.dtd">
<!-- Creator: CorelDRAW -->
<svg xmlns="http://www.w3.org/2000/svg" xml:space="preserve" width="56px" height="56px" style="shape-rendering:geometricPrecision; text-rendering:geometricPrecision; image-rendering:optimizeQuality; fill-rule:evenodd; clip-rule:evenodd"
viewBox="0 0 1508.73 1508.73"
 xmlns:xlink="http://www.w3.org/1999/xlink">
 <defs>
  <style type="text/css">
   <![CDATA[
    .fil0 {fill:#54453E}
    .fil2 {fill:#F0F0F0}
    .fil1 {fill:#F0F0F0;fill-rule:nonzero}
   ]]>
  </style>
 </defs>
 <g id="Layer_x0020_1">
  <metadata id="CorelCorpID_0Corel-Layer"/>
  <rect class="fil0" width="1508.73" height="1508.73" rx="37.7182" ry="37.7182"/>
  <g id="_50943728">
   <path id="_50618568" class="fil1" d="M172.058 1332.3l0 -160.959 31.629 0 65.8844 107.479 0 -107.479 30.2081 0 0 160.959 -32.6443 0 -64.8719 -104.97 0 104.97 -30.2053 0zm162.083 0l0 -160.959 119.325 0 0 27.246 -86.8315 0 0 35.6791 80.7955 0 0 27.095 -80.7955 0 0 43.8073 89.9027 0 0 27.1313 -122.396 0zm133.604 0l55.0123 -83.9841 -49.8434 -76.9747 37.9643 0 32.3031 51.7174 31.5926 -51.7174 37.665 0 -50.0699 78.1746 55.0151 82.7842 -39.2006 0 -35.6763 -55.65 -35.791 55.65 -38.9712 0zm189.178 0l-38.4174 -160.959 33.2429 0 24.2868 110.553 29.4165 -110.553 38.6356 0 28.2222 112.43 24.6951 -112.43 32.7171 0 -39.0887 160.959 -34.4764 0 -32.0402 -120.332 -31.9674 120.332 -35.226 0zm182.804 -79.4865c0,-16.4131 2.43623,-30.1661 7.34784,-41.2984 3.66972,-8.16738 8.65406,-15.5488 14.9866,-22.0743 6.33531,-6.48076 13.2664,-11.3168 20.7988,-14.4635 10.0442,-4.27109 21.5876,-6.37167 34.7058,-6.37167 23.7217,0 42.6829,7.34784 56.9255,22.0743 14.2398,14.6901 21.361,35.1505 21.361,61.3504 0,26.0069 -7.08212,46.3191 -21.2128,61.0092 -14.1279,14.6509 -33.0163,21.9988 -56.6262,21.9988 -23.9483,0 -42.985,-7.30868 -57.1129,-21.8869 -14.1251,-14.6146 -21.1736,-34.7421 -21.1736,-60.3379zm33.4667 -1.08805c0,18.2172 4.23473,32.0458 12.6287,41.4494 8.4303,9.40647 19.1122,14.0915 32.0793,14.0915 12.9279,0 23.5735,-4.64869 31.8919,-14.0132 8.28205,-9.33374 12.4413,-23.3106 12.4413,-41.9753 0,-18.4353 -4.04733,-32.1912 -12.1056,-41.2984 -8.09465,-9.06802 -18.8465,-13.602 -32.2276,-13.602 -13.4146,0 -24.2084,4.60953 -32.415,13.7894 -8.17017,9.1827 -12.293,23.0113 -12.293,41.5585zm141.433 1.08805c0,-16.4131 2.43902,-30.1661 7.34784,-41.2984 3.67252,-8.16738 8.65406,-15.5488 14.9894,-22.0743 6.33251,-6.48076 13.2636,-11.3168 20.7988,-14.4635 10.0414,-4.27109 21.5876,-6.37167 34.703,-6.37167 23.7217,0 42.6857,7.34784 56.9255,22.0743 14.2426,14.6901 21.361,35.1505 21.361,61.3504 0,26.0069 -7.08212,46.3191 -21.21,61.0092 -14.1307,14.6509 -33.0163,21.9988 -56.629,21.9988 -23.9455,0 -42.985,-7.30868 -57.1129,-21.8869 -14.1251,-14.6146 -21.1736,-34.7421 -21.1736,-60.3379zm33.4667 -1.08805c0,18.2172 4.23473,32.0458 12.6287,41.4494 8.43309,9.40647 19.115,14.0915 32.0793,14.0915 12.9307,0 23.5735,-4.64869 31.8919,-14.0132 8.28205,-9.33374 12.4441,-23.3106 12.4441,-41.9753 0,-18.4353 -4.05012,-32.1912 -12.1056,-41.2984 -8.09465,-9.06802 -18.8493,-13.602 -32.2304,-13.602 -13.4146,0 -24.2084,4.60953 -32.415,13.7894 -8.17017,9.1827 -12.293,23.0113 -12.293,41.5585zm147.919 -80.3843l59.3981 0c13.3811,0 23.5707,1.01533 30.6193,3.07395 9.44283,2.77467 17.5375,7.71985 24.2448,14.8411 6.74648,7.08492 11.8791,15.7753 15.4061,26.0461 3.48232,10.3043 5.24446,22.9721 5.24446,38.0762 0,13.2272 -1.64746,24.6588 -4.94518,34.2526 -4.01376,11.6889 -9.74491,21.1708 -17.241,28.4068 -5.62206,5.50738 -13.2272,9.77847 -22.8211,12.8524 -7.16044,2.28519 -16.7543,3.4096 -28.7816,3.4096l-61.1239 0 0 -160.959zm32.4933 27.246l0 106.581 24.2448 0c9.06802,0 15.6271,-0.486686 19.6744,-1.53558 5.24446,-1.31461 9.63023,-3.52428 13.1154,-6.67096 3.48792,-3.14947 6.29615,-8.35757 8.50861,-15.5544 2.1733,-7.194 3.29772,-17.0508 3.29772,-29.4921 0,-12.4413 -1.12441,-21.9596 -3.29772,-28.6306 -2.21246,-6.67375 -5.28642,-11.8819 -9.21906,-15.5907 -3.9746,-3.74525 -8.9953,-6.25979 -15.0677,-7.5716 -4.53122,-1.04889 -13.4146,-1.53558 -26.681,-1.53558l-14.5754 0z"/>
   <g>
    <g>
     <polygon id="_50603368" class="fil2" points="173.666,1053.53 510.847,1053.53 510.847,868.435 173.666,173.694 "/>
     <polygon id="_50603088" class="fil2" points="197.374,173.694 455.53,173.694 881.254,1053.53 623.101,1053.53 "/>
    </g>
    <g>
     <polygon id="_50601608" class="fil2" points="1336.67,173.694 999.491,173.694 999.491,358.786 1336.67,1053.53 "/>
     <polygon id="_50600208" class="fil2" points="1312.96,1053.53 1054.81,1053.53 629.084,173.694 887.237,173.694 "/>
    </g>
    <polygon id="_50598280" class="fil2" points="900.668,1031.56 617.135,463.543 617.135,209.781 900.668,777.794 "/>
   </g>
  </g>
 </g>
</svg>
