<?xml version="1.0" encoding="UTF-8"?>
<!DOCTYPE svg PUBLIC "-//W3C//DTD SVG 1.1//EN" "http://www.w3.org/Graphics/SVG/1.1/DTD/svg11.dtd">
<!-- Creator: CorelDRAW -->
<svg xmlns="http://www.w3.org/2000/svg" xml:space="preserve" width="900px" height="300px" style="shape-rendering:geometricPrecision; text-rendering:geometricPrecision; image-rendering:optimizeQuality; fill-rule:evenodd; clip-rule:evenodd"
viewBox="0 0 2085.2 366.607"
 xmlns:xlink="http://www.w3.org/1999/xlink">
 <defs>
  <style type="text/css">
   <![CDATA[
    .fil0 {fill:black}
    .fil1 {fill:#D5E338}
    .fil2 {fill:#7E7E7E;fill-rule:nonzero}
   ]]>
  </style>
 </defs>
 <g id="Layer_x0020_1">
  <metadata id="CorelCorpID_0Corel-Layer"/>
  <g id="_50670648">
   <path id="_50943832" class="fil0" d="M66.2221 175.745l0 12.734c0,50.5526 -66.2221,78.6442 -66.2221,165.558l0 7.64042 191.026 0 0 -33.1111c0,-69.4107 66.2221,-105.639 66.2221,-147.728 0,-55.7204 -66.2221,-90.8745 -66.2221,-140.087l0 -40.7515 -188.479 0c0,40.9918 4.10404,73.6017 19.5332,100.18 11.2612,19.3951 44.1421,50.1102 44.1421,75.5655z"/>
   <path id="_50946032" class="fil1" d="M343.97 180.675l0 12.7366c0,50.5526 -66.2221,78.6416 -66.2221,165.555l0 7.64042 191.026 0 0 -33.1111c0,-69.4082 66.2221,-105.636 66.2221,-147.725 0,-55.7229 -66.2221,-90.8745 -66.2221,-140.087l0 -40.7515 -188.479 0c0,40.9893 4.10404,73.5992 19.5306,100.177 11.2612,19.3951 44.1447,50.1128 44.1447,75.5655z"/>
   <path id="_50668856" class="fil2" d="M668.389 280.729l14.2862 -68.0836 54.4163 0 -14.2862 68.0836 57.5896 0 36.8648 -175.697 -57.5896 0 -12.4425 59.2977 -54.4163 0 12.4425 -59.2977 -57.5896 0 -36.8648 175.697 57.5896 0zm258.695 -137.384c5.10896,-0.122738 9.41501,0.6904 12.9028,2.48033 3.49547,1.74901 6.26985,4.22934 8.36918,7.40262 2.09933,3.17072 3.55939,6.87331 4.43901,11.0208 0.869392,4.18843 1.19925,8.62233 1.02281,13.3401 -0.176435,4.71773 -0.767111,9.47638 -1.78481,14.3168 -1.48564,7.27988 -3.54405,13.9895 -6.13177,20.1315 -2.59028,6.142 -5.70219,11.4683 -9.42268,16.0249 -3.71537,4.51317 -8.03676,8.05211 -12.9897,10.5324 -4.91974,2.52124 -10.4736,3.78186 -16.7026,3.82277 -5.48484,-0.0409126 -9.99034,-1.05606 -13.5063,-3.09146 -3.51848,-2.03284 -6.23917,-4.75864 -8.15695,-8.21576 -1.87942,-3.45456 -3.13493,-7.35915 -3.7256,-11.7112 -0.631588,-4.35208 -0.733869,-8.90871 -0.393784,-13.6264 0.337529,-4.71773 1.02537,-9.35364 1.97147,-13.8668 0.940989,-4.47481 2.21951,-9.02889 3.86624,-13.5855 1.64929,-4.55408 3.7077,-8.94707 6.16501,-13.0946 2.42407,-4.18843 5.31608,-7.89101 8.60954,-11.1845 3.29602,-3.29346 7.09322,-5.89653 11.3098,-7.76828 4.22422,-1.91266 8.94451,-2.88689 14.1583,-2.92781zm9.49939 -42.948c-13.7134,0.0409126 -26.652,2.19649 -38.7723,6.46674 -12.1638,4.27025 -23.1207,10.3713 -32.9295,18.3416 -9.80623,7.97028 -18.0834,17.5694 -24.8544,28.713 -6.73779,11.1845 -11.5962,23.6705 -14.5368,37.4989 -3.10168,14.9663 -3.654,28.2655 -1.7439,39.8974 1.91011,11.632 6.0704,21.474 12.5218,29.4852 6.40282,8.05466 14.8129,14.1148 25.197,18.3033 10.356,4.14751 22.4891,6.22127 36.3099,6.26218 10.4506,0 20.5739,-1.34244 30.4032,-3.98642 9.82413,-2.64142 19.1062,-6.54601 27.8359,-11.7112 8.71949,-5.1243 16.6489,-11.5092 23.8009,-19.0346 7.15714,-7.56371 13.2454,-16.227 18.3621,-26.069 5.06549,-9.80112 8.89593,-20.7018 11.4453,-32.6585 1.9638,-9.35364 2.68744,-18.4234 2.15558,-27.3322 -0.496065,-8.86524 -2.36782,-17.2037 -5.58457,-24.9311 -3.21931,-7.72736 -7.89613,-14.5189 -13.987,-20.3745 -6.1241,-5.89653 -13.7824,-10.4941 -23.0057,-13.8285 -9.23346,-3.29346 -20.0983,-5.00156 -32.6176,-5.04248zm219.12 180.332l8.60187 -40.997 -79.0636 0 28.2629 -134.7 -57.5896 0 -36.8648 175.697 136.653 0zm174.72 0l8.60187 -40.997 -88.8238 0 105.12 -93.9481 8.55073 -40.7515 -151.538 0 -8.60187 40.997 80.7717 0 -103.695 92.9713 -8.75529 41.7283 158.37 0zm100.599 -95.6562l8.19274 -39.0434 16.3497 0c3.13748,-0.0409126 6.39259,0.161093 9.83436,0.608575 3.41364,0.406569 6.56647,1.26062 9.47638,2.52124 2.86899,1.26062 5.03736,3.13237 6.50766,5.61269 1.47541,2.48033 1.84874,5.73543 1.0356,9.80112 -1.0893,5.00412 -2.95338,9.02889 -5.53598,12.0385 -2.62352,3.00963 -5.79936,5.16521 -9.5403,6.50766 -3.7793,1.34244 -7.90124,1.99449 -12.4067,1.95358l-23.9134 0zm-20.0702 95.6562l11.4683 -54.6618 29.0377 0c16.8151,-0.0818252 31.1319,-2.60306 42.9582,-7.60463 11.8288,-5.00156 21.2924,-12.1204 28.3857,-21.3103 7.10345,-9.23346 11.9593,-20.175 14.5725,-32.8221 2.54425,-12.1204 2.00983,-22.5735 -1.57769,-31.4388 -3.63866,-8.82433 -10.4941,-15.6976 -20.5483,-20.4972 -10.0875,-4.84047 -23.5171,-7.32079 -40.3449,-7.36171l-84.6763 0 -36.8648 175.697 57.5896 0zm234.536 -137.384c5.10896,-0.122738 9.41501,0.6904 12.9028,2.48033 3.49547,1.74901 6.26985,4.22934 8.36918,7.40262 2.09933,3.17072 3.55939,6.87331 4.43901,11.0208 0.869392,4.18843 1.19925,8.62233 1.02281,13.3401 -0.176435,4.71773 -0.767111,9.47638 -1.78481,14.3168 -1.48564,7.27988 -3.54405,13.9895 -6.13177,20.1315 -2.59028,6.142 -5.70219,11.4683 -9.42268,16.0249 -3.71537,4.51317 -8.03676,8.05211 -12.9897,10.5324 -4.91974,2.52124 -10.4736,3.78186 -16.7026,3.82277 -5.48484,-0.0409126 -9.99034,-1.05606 -13.5063,-3.09146 -3.51848,-2.03284 -6.23917,-4.75864 -8.15695,-8.21576 -1.87942,-3.45456 -3.13493,-7.35915 -3.7256,-11.7112 -0.631588,-4.35208 -0.733869,-8.90871 -0.393784,-13.6264 0.337529,-4.71773 1.02537,-9.35364 1.97147,-13.8668 0.940989,-4.47481 2.21951,-9.02889 3.86624,-13.5855 1.64929,-4.55408 3.7077,-8.94707 6.16501,-13.0946 2.42407,-4.18843 5.31608,-7.89101 8.60954,-11.1845 3.29602,-3.29346 7.09322,-5.89653 11.3098,-7.76828 4.22422,-1.91266 8.94451,-2.88689 14.1583,-2.92781zm9.49939 -42.948c-13.7134,0.0409126 -26.652,2.19649 -38.7723,6.46674 -12.1638,4.27025 -23.1207,10.3713 -32.9295,18.3416 -9.80623,7.97028 -18.0834,17.5694 -24.8544,28.713 -6.73779,11.1845 -11.5962,23.6705 -14.5368,37.4989 -3.10168,14.9663 -3.654,28.2655 -1.7439,39.8974 1.91011,11.632 6.0704,21.474 12.5218,29.4852 6.40282,8.05466 14.8129,14.1148 25.197,18.3033 10.356,4.14751 22.4891,6.22127 36.3099,6.26218 10.4506,0 20.5739,-1.34244 30.4032,-3.98642 9.82413,-2.64142 19.1062,-6.54601 27.8359,-11.7112 8.71949,-5.1243 16.6489,-11.5092 23.8009,-19.0346 7.15714,-7.56371 13.2454,-16.227 18.3621,-26.069 5.06549,-9.80112 8.89593,-20.7018 11.4453,-32.6585 1.9638,-9.35364 2.68744,-18.4234 2.15558,-27.3322 -0.496065,-8.86524 -2.36782,-17.2037 -5.58457,-24.9311 -3.21931,-7.72736 -7.89613,-14.5189 -13.987,-20.3745 -6.1241,-5.89653 -13.7824,-10.4941 -23.0057,-13.8285 -9.23346,-3.29346 -20.0983,-5.00156 -32.6176,-5.04248zm219.12 180.332l8.60187 -40.997 -79.0636 0 28.2629 -134.7 -57.5896 0 -36.8648 175.697 136.653 0zm122.451 -64.9104l88.6448 -110.786 -63.4477 0 -42.7511 59.5406 -17.7663 -59.5406 -64.422 0 41.9482 111.763 -13.4142 63.9336 57.5896 0 13.6188 -64.9104z"/>
  </g>
 </g>
</svg>
